<svg xmlns="http://www.w3.org/2000/svg" width="10" height="18" viewBox="0 0 10 18" fill="none">
    <rect x="0" y="0" width="2" height="2" fill="#FFFFFF" />
    <rect x="3" y="0" width="2" height="1" fill="#FFFFFF" />
    <rect x="3" y="1" width="1" height="1" fill="#FFFFFF" />
    <rect x="5" y="1" width="2" height="1" fill="#FFFFFF" />
    <rect x="6" y="0" width="1" height="1" fill="#FFFFFF" />
    <rect x="8" y="0" width="2" height="2" fill="#FFFFFF" />
    <rect x="8" y="4" width="2" height="2" fill="#FFFFFF" />
    <rect x="8" y="8" width="2" height="2" fill="#FFFFFF" />
    <rect x="8" y="12" width="2" height="2" fill="#FFFFFF" />
    <rect x="8" y="16" width="2" height="2" fill="#FFFFFF" />
    <rect x="0" y="16" width="2" height="2" fill="#FFFFFF" />
    <rect x="3" y="16" width="2" height="1" fill="#FFFFFF" />
    <rect x="3" y="17" width="1" height="1" fill="#FFFFFF" />
    <rect x="5" y="17" width="2" height="1" fill="#FFFFFF" />
    <rect x="6" y="16" width="1" height="1" fill="#FFFFFF" />
    <rect x="0" y="4" width="2" height="2" fill="#FFFFFF" />
    <rect x="0" y="8" width="2" height="2" fill="#FFFFFF" />
    <rect x="3" y="8" width="2" height="1" fill="#FFFFFF" />
    <rect x="3" y="9" width="1" height="1" fill="#FFFFFF" />
    <rect x="5" y="9" width="2" height="1" fill="#FFFFFF" />
    <rect x="6" y="8" width="1" height="1" fill="#FFFFFF" />
</svg>
